<svg id="Layer_1" data-name="Layer 1" xmlns="http://www.w3.org/2000/svg" viewBox="0 0 708.79 341"><title>siteLogo</title><path d="M68.18-220.63c.18.82.88.65,1.46.79,7.6,1.79,12.74,8.71,11.81,15.89-1,8-7.08,13.45-14.9,13.44a14.73,14.73,0,0,1-14.74-13.17,15,15,0,0,1,11.5-16.14c.66-.17,1.56.18,1.87-.81Z" transform="translate(207.82 220.63)" style="fill:#ec1c24"/><path d="M-207.82-63.13c1.28-.58.88-1.94,1.24-2.91a12.75,12.75,0,0,1,14.46-8.48,12.53,12.53,0,0,1,10.55,12.21A12.75,12.75,0,0,1-192-49.2a12.94,12.94,0,0,1-14.39-8.09c-.39-1-.14-2.3-1.4-2.84Z" transform="translate(207.82 220.63)" style="fill:#ec1c24"/><path d="M-5.13-132.81c-3.72-3.3-7.45-6.55-9.48-11.3a23.54,23.54,0,0,1-2.13-12.37c.28-2.21-.09-3.35-2.61-3a17.32,17.32,0,0,1-3.74,0c-4.18-.39-7.51-.16-8,5.46-.23,2.84-2.85,4.34-6.11,4.34-18.86,0-37.73.13-56.6.18-4.86,0-6.76-1.54-7.51-6.46-.39-2.55-1.28-3.72-4-3.56-3.74.22-7.5,0-11.25.08-6.69.2-11.41,4.89-11.82,11.6-.07,1-.06,2-.06,3q0,120.18,0,240.35c0,4.26.5,8.19,3.83,11.3a11.91,11.91,0,0,0,8.47,3.34q49.68,0,99.36,0c7.4,0,12.23-5.24,12.23-13.11q0-60.55,0-121.11V-88.87c4.4,2.92,8.89,3.5,13.74,3.25,4.19-.21,7.28,3.52,7.41,7.83.15,4.63-2.71,8.61-7,8.62C6.11-69.17,6-67.62,6-64.89,6.07-11.28,5.84,42.35,6.2,96c.09,13-9.64,24.54-24.42,24.41-32-.3-64-.09-96-.1-14.89,0-24.27-9.44-24.27-24.38,0-50.86.23-101.74-.14-152.6-.11-15.69-.12-31.38-.27-47.06-.13-14.57.18-29.14.44-43.71a22.3,22.3,0,0,1,22.63-22.15c17.5,0,35,0,52.5,0,2,0,3.53.21,5,2.22a7.81,7.81,0,0,0,12.82,0,4.8,4.8,0,0,1,4.59-2.2c8.62.07,17.25-.06,25.87.1a5.54,5.54,0,0,0,4.75-2.1A25,25,0,0,1,18.09-178a25.28,25.28,0,0,1,15.56,24.66,25.19,25.19,0,0,1-18.06,22.87,24.72,24.72,0,0,1-17.19-1C-2.51-132.6-4.12-131.92-5.13-132.81ZM-66-158.32c-2.49,0-5,0-7.47,0-.77,0-1.5.09-1.57,1.12s.49,1.57,1.55,1.57c4.85,0,9.7,0,14.55,0,.89,0,1.79-.11,1.81-1.35s-.88-1.31-1.78-1.32C-61.32-158.33-63.69-158.32-66-158.32Zm15.2-.83A2,2,0,0,0-52.68-157a2,2,0,0,0,2.27,2.29,2.12,2.12,0,0,0,2.09-2.16C-48.31-158.22-49.18-159.08-50.85-159.15Z" transform="translate(207.82 220.63)" style="fill:#ec1c24"/><path d="M340.83-60c8.39.43,18.78-.79,29.1.58,14.93,2,25.79,13.87,26,28.28.2,14.11-11,27.31-25.48,29.35-4.09.58-3.54,1.85-2.12,4.55C374,13.44,379.65,24.12,385,35c4,8.06,9.92,13.59,18.53,16.28,1,.32,3,.29,2.68,2s-2,1-3.18,1.09c-.12,0-.25,0-.37,0-15.14,1.84-25.16-4.13-31.18-18.48-4.8-11.46-11.3-22.19-16.93-33.31-1.21-2.4-2.63-3.6-5.48-3.43a100,100,0,0,1-12.36,0c-3.73-.25-4.66,1.28-4.61,4.79.18,12.24.06,24.49.07,36.73,0,6.42.93,7.71,6.72,10.1,1.58.65,4.63.54,4.17,2.75-.42,2-3.26,1-5,1-8.74.09-17.49,0-26.23,0-1.19,0-2.8.31-3-1.26-.2-1.41,1.42-1.49,2.41-1.91,8.33-3.53,8.34-3.53,8.34-12.71,0-27.48-.1-55,.07-82.45,0-6.55-2-11.15-8.6-13.09-1-.31-2.54-.55-2.07-2.08.4-1.3,1.85-1,2.94-1ZM332.3-30.72c0,6.12.06,12.24,0,18.35,0,2.75.74,4.11,3.83,4,9.61-.19,19.23-.05,28.84-.2s15.28-4.7,17.76-14a28.26,28.26,0,0,0,1.08-8.51c-.59-12.53-6-23.11-22.46-22.38-8.35.38-16.73.15-25.09,0-3,0-4,1.13-4,4C332.37-43.21,332.3-37,332.3-30.72Z" transform="translate(207.82 220.63)" style="fill:#ec1c24"/><path d="M11-29.82c5.18,8.74,10.34,17.49,15.55,26.21,15,25.07,30,50.07,44.81,75.24C75.28,78.25,80.64,83,87.07,86.78a123.6,123.6,0,0,0,21.68,10c1.68.6,4,1.09,3.43,3.65s-2.83,2-4.63,2q-32.05,0-64.1,0c-1.7,0-3.79.43-4.42-1.81s1.34-2.89,2.82-3.81c7.25-4.52,9-12.43,4.46-20.15Q29.42,48.24,12.4,19.83a13.55,13.55,0,0,1-2-7.38c.1-12.87,0-25.74,0-38.61v-3.55Z" transform="translate(207.82 220.63)" style="fill:#ec1c24"/><path d="M-10.06,3.72q-5.49-9.24-11-18.48C-37.65-42.61-54.34-70.41-70.8-98.33c-3.64-6.17-8.69-10.53-14.62-14.13a125.53,125.53,0,0,0-22.29-10.48c-1.74-.63-3.84-1.06-3.43-3.64s2.66-1.76,4.22-1.77q32.42-.08,64.83,0c1.5,0,3.46-.68,4,1.63.5,2.08-1.09,2.75-2.51,3.61-7.57,4.6-9.41,12.51-4.77,20.31q17.12,28.75,34.26,57.52a10.51,10.51,0,0,1,1.71,5.6c-.07,14.36,0,28.73,0,43.09Z" transform="translate(207.82 220.63)" style="fill:#ec1c24"/><path d="M105.87-60.13c8.74,0,17.49-.08,26.23,0,15.23.17,27.3,10,30,24.24,3,15.72-9,31.93-25.5,34.22-10.93,1.51-22,.39-32.93.63-5.48.12-5.48,0-5.48,5.64q0,17.8,0,35.6c0,6.71.75,7.8,7,10.21l2.43,1c.78.33,1.88.49,1.71,1.63-.21,1.31-1.39,1.22-2.38,1.23q-14.81,0-29.6,0c-1,0-2.2.17-2.45-1.14s1.06-1.49,1.91-1.87c1.37-.61,2.77-1.14,4.17-1.67A6.49,6.49,0,0,0,85.54,43c0-30.1,0-60.2,0-90.3,0-5.19-3.28-8.09-8-9.68-1.08-.36-2.9-.42-2.58-2.09s2-1,3.19-1C87.38-60.15,96.63-60.13,105.87-60.13ZM98.58-30.91c0,6.49,0,13,0,19.46,0,2.11.58,3.4,2.88,3.38,10.84-.12,21.71.62,32.51-.51,7.3-.76,12.06-5,14.32-11.94a31.6,31.6,0,0,0,1.49-12.55c-1.17-13.84-8.25-20.31-22.12-20.31-8.11,0-16.23.19-24.33-.08-3.92-.14-5,1.29-4.79,5C98.77-42.64,98.58-36.77,98.58-30.91Z" transform="translate(207.82 220.63)" style="fill:#ec1c24"/><path d="M276,34.61c0,5.77.05,10.85,0,15.93,0,2.9-2.29,2.44-4.1,2.45q-19.12,0-38.24,0H195.43c-1.21,0-3,.43-3.31-1-.49-2,1.66-1.85,2.77-2.3,7.44-3,7.66-3.22,7.66-11.22q0-42.93,0-85.86c0-6.47-.81-7.62-6.88-9.86-.82-.31-1.66-.57-2.45-.93s-1.46-.71-1.19-1.64a1.62,1.62,0,0,1,1.76-1.07c.75,0,1.5,0,2.25,0,22.87,0,45.74.06,68.61-.07,3.57,0,5,1,4.72,4.67s-.06,7.49-.07,11.24c0,.86.16,1.91-.91,2.23-1.38.41-1.76-.85-2-1.71-2.06-7.38-7.28-9.26-14.33-9.06-11,.3-22,.17-33,0-3.13,0-4.14,1-4.07,4.11.17,8,.19,16,0,24-.09,3.4,1.28,4.31,4.41,4.25,8-.14,16,0,24-.05,5.67,0,9.87-2.21,11.72-8,.37-1.15.53-3.2,2.41-2.7,1.4.37,1,2.09,1,3.31,0,7.37,0,14.75,0,22.12,0,1.12.2,2.59-1,2.94-1.72.48-1.95-1.31-2.28-2.37-1.94-6.27-6.49-8.4-12.62-8.34-7.74.07-15.49.1-23.24,0-3.12,0-4.43.87-4.4,4.27q.21,26.43,0,52.86c0,3.37,1.16,4.26,4.36,4.23,14-.14,28-.05,42-.07,5.72,0,8.61-2,10.81-7.45A8.83,8.83,0,0,1,276,34.61Z" transform="translate(207.82 220.63)" style="fill:#ec1c24"/><path d="M467.93-3.32V39.79c0,7.33.64,8.26,7.6,11a3.93,3.93,0,0,1,.71.23c1,.64,3,.48,2.67,2.06-.32,1.77-2.2,1.21-3.49,1.22-4.25.06-8.5,0-12.75,0-5.25,0-10.5,0-15.74,0-1.07,0-2.55.2-2.7-1.29-.11-1.17,1.27-1.35,2.16-1.72,1.14-.49,2.31-.93,3.48-1.35,3.65-1.29,5.31-3.9,5.3-7.72q0-9.73,0-19.49,0-35.23.11-70.48c0-5-.12-5.16-5.3-5.17-4.5,0-9,0-13.5.06-5.3.1-9,2.52-10.74,7.69-.4,1.14-.49,3.24-2.31,2.88s-1.1-2.24-1.12-3.52c-.07-3.74.05-7.49-.05-11.24-.06-2.27.84-3.07,3.1-3.06q36.17.07,72.35,0c2.46,0,3.33.82,3.24,3.26-.14,4,0,8,0,12,0,1,.06,2.22-1,2.56-1.26.39-1.7-.8-2-1.75-2-7.24-7.25-9.22-14.07-8.91-3.75.17-7.51.15-11.25,0-3.42-.14-4.83.93-4.78,4.7C468.05-33.32,467.93-18.32,467.93-3.32Z" transform="translate(207.82 220.63)" style="fill:#ec1c24"/><path d="M-21.15,1.74c2.75,4.4,5.3,8.49,7.88,12.57,1.13,1.77-.44,2.82-1.13,4q-19.46,32.63-39,65.19c-3.48,5.81-2.5,8.63,3.84,11.13,1.86.73,3.73,1.42,5.57,2.19a2.66,2.66,0,0,1,1.85,3.26c-.35,1.52-1.61,1.72-2.93,1.7-.5,0-1,0-1.5,0q-26.06,0-52.1,0c-1.75,0-4.08.73-4.46-2.06-.34-2.56,1.89-3,3.59-3.57A97.89,97.89,0,0,0-71.3,81a29.24,29.24,0,0,0,7.47-8.27q19.95-33.4,40-66.75C-23,4.73-22.24,3.49-21.15,1.74Z" transform="translate(207.82 220.63)" style="fill:#ec1c24"/><path d="M30.2-24.7c-2.77-4.44-5.22-8.48-7.82-12.43-1.28-2,.36-3.06,1.09-4.29q19.35-32.46,38.82-64.85c3.62-6,2.66-8.89-3.81-11.44l-5.57-2.18a2.57,2.57,0,0,1-1.82-2.91c.21-1.6,1.36-1.84,2.74-1.84q27.92,0,55.83,0c1.26,0,2.26.29,2.54,1.64a2.48,2.48,0,0,1-1.59,3c-1.72.72-3.45,1.44-5.2,2.08a89.83,89.83,0,0,0-14.23,6.56C82-106,74.49-99.35,69.06-89.76,56.71-68,43.42-46.7,30.2-24.7Z" transform="translate(207.82 220.63)" style="fill:#ec1c24"/><path d="M-192.45,51.5h-10.5c-.87,0-1.87.06-2-1.11-.14-1,.77-1.3,1.43-1.45,6-1.41,6.45-5.79,6.41-10.95q-.23-33.16,0-66.34c0-4.76-.89-8.36-6-9.74-.85-.23-2.22-.46-1.75-1.88.36-1.1,1.5-.64,2.31-.64,6.74,0,13.49,0,20.23,0,.81,0,2-.36,2.21.8s-.82,1.44-1.64,1.65c-5.3,1.4-6.06,5.13-6,10q.3,34.1,0,68.21c0,4.34,1.1,7.23,5.43,8.51,1,.29,2.57.5,2.18,2s-1.89.86-2.92.88C-186.21,51.54-189.33,51.5-192.45,51.5Z" transform="translate(207.82 220.63)" style="fill:#ec1d25"/><path d="M-11.52-124.91a14.37,14.37,0,0,1,13.83,18.5c-.48,1.65-1.11,3.08.09,4.85s.45,3.65-1,5.08a4.05,4.05,0,0,1-5.16.76c-1.69-1.09-3.06-.92-4.85-.59-5.85,1.06-10.91-.61-14.52-5.47a13.79,13.79,0,0,1-1.36-15.15C-21.88-122.13-17.42-124.81-11.52-124.91Z" transform="translate(207.82 220.63)" style="fill:#ec1c24"/><path d="M66.68-141.55a13.37,13.37,0,0,1-13.75,13.28,13.53,13.53,0,0,1-13.24-13.48,13.64,13.64,0,0,1,13.65-13.51A13.44,13.44,0,0,1,66.68-141.55Z" transform="translate(207.82 220.63)" style="fill:#ec1c24"/><path d="M92.93-166.67a10.09,10.09,0,0,1-10.16,10.54,10.51,10.51,0,0,1-10.7-10.19A10.82,10.82,0,0,1,82.41-177,10.5,10.5,0,0,1,92.93-166.67Z" transform="translate(207.82 220.63)" style="fill:#ec1c24"/><path d="M-59.32-174.25a7.17,7.17,0,0,1,7.15-7.49,7.51,7.51,0,0,1,7.71,7.49A7.4,7.4,0,0,1-52-167,7.13,7.13,0,0,1-59.32-174.25Z" transform="translate(207.82 220.63)" style="fill:#ec1d25"/><path d="M-32.64-181.59c-2.61-.51-4.33-1.87-4.16-4.77s1.79-4.35,4.6-4.23,4.33,1.9,4.25,4.63S-29.88-181.83-32.64-181.59Z" transform="translate(207.82 220.63)" style="fill:#ec1f27"/><path d="M51.81-174c-.11,2.3-1.52,3.64-4,3.53s-3.78-1.7-3.69-4.16A3.5,3.5,0,0,1,48-178.2C50.45-178.2,51.83-176.8,51.81-174Z" transform="translate(207.82 220.63)" style="fill:#ec1f26"/><path d="M-5.13-132.81c1,.89,2.62.21,3.53,1.36-1.21,1.49-2.93,2.11-5.14,2.93C-6.09-130.18-8.47-132.31-5.13-132.81Z" transform="translate(207.82 220.63)" style="fill:#ed2a31"/><path d="M-66-158.32c2.36,0,4.73,0,7.09,0,.9,0,1.79.06,1.78,1.32s-.92,1.35-1.81,1.35c-4.85,0-9.7,0-14.55,0-1.06,0-1.63-.44-1.55-1.57s.8-1.12,1.57-1.12C-71-158.33-68.54-158.32-66-158.32Z" transform="translate(207.82 220.63)" style="fill:#fbddde"/><path d="M-50.85-159.15c1.67.07,2.54.93,2.53,2.3a2.12,2.12,0,0,1-2.09,2.16A2,2,0,0,1-52.68-157,2,2,0,0,1-50.85-159.15Z" transform="translate(207.82 220.63)" style="fill:#fdf1f1"/></svg>